<?xml version="1.0" standalone="no"?>
<!DOCTYPE svg PUBLIC "-//W3C//DTD SVG 20010904//EN"
 "http://www.w3.org/TR/2001/REC-SVG-20010904/DTD/svg10.dtd">
<svg version="1.0" xmlns="http://www.w3.org/2000/svg"
 width="512.000000pt" height="512.000000pt" viewBox="0 0 512.000000 512.000000"
 preserveAspectRatio="xMidYMid meet">
<metadata>
Created by potrace 1.14, written by Peter Selinger 2001-2017
</metadata>
<g transform="translate(0.000000,512.000000) scale(0.100000,-0.100000)"
fill="#000000" stroke="none">
<path d="M2041 4944 c-132 -35 -262 -143 -311 -258 -23 -51 -27 -56 -50 -51
-113 24 -143 27 -202 16 -83 -14 -154 -51 -212 -107 -62 -62 -92 -115 -115
-204 -15 -62 -23 -75 -47 -88 -38 -19 -90 -69 -115 -109 -20 -31 -24 -33 -82
-33 -319 -1 -550 -334 -438 -630 12 -30 21 -58 21 -62 0 -3 -24 -19 -53 -36
-68 -39 -122 -99 -160 -181 -28 -59 -32 -76 -32 -156 0 -99 17 -158 66 -233
28 -42 29 -44 17 -111 -8 -48 -9 -84 -2 -117 l9 -49 -48 -54 c-141 -157 -165
-365 -65 -553 40 -76 137 -167 212 -198 51 -23 56 -27 51 -50 -24 -113 -27
-143 -16 -202 14 -83 51 -154 107 -212 62 -62 115 -92 204 -115 62 -15 75 -23
88 -47 19 -37 68 -90 108 -115 30 -18 31 -21 36 -109 5 -75 11 -101 40 -162
108 -228 373 -336 599 -244 l57 23 19 -41 c28 -63 112 -142 190 -179 61 -28
78 -32 158 -32 100 0 158 17 234 67 44 29 45 29 106 17 44 -8 79 -9 116 -3
l54 10 54 -49 c157 -141 365 -165 553 -65 76 40 167 137 198 212 23 51 27 56
50 51 113 -24 143 -27 202 -16 83 14 154 51 212 107 62 62 92 115 115 204 15
62 23 75 47 88 38 19 90 69 115 110 20 30 24 32 82 32 216 1 405 155 453 369
20 89 15 183 -15 261 -12 30 -21 58 -21 62 0 3 24 19 53 36 68 39 122 99 160
181 28 59 32 76 32 156 0 99 -17 158 -66 233 -28 42 -29 44 -17 111 8 48 9 84
2 117 l-9 49 48 54 c141 157 165 365 65 553 -40 76 -137 167 -212 198 -51 23
-56 27 -51 50 24 113 27 143 16 202 -14 83 -51 154 -107 212 -62 62 -115 92
-204 115 -62 15 -75 23 -88 47 -19 38 -69 90 -109 115 -32 20 -33 23 -33 83 0
34 -7 87 -16 117 -17 58 -58 144 -72 153 -7 4 -132 -80 -132 -89 0 -1 12 -24
27 -50 21 -39 27 -65 33 -150 7 -119 17 -140 90 -188 31 -20 59 -49 75 -79 28
-51 75 -95 108 -103 12 -2 48 -9 80 -15 72 -14 132 -59 165 -122 30 -59 33
-124 8 -205 -34 -111 -2 -172 119 -228 131 -59 200 -159 200 -290 0 -97 -24
-153 -101 -237 -73 -79 -83 -110 -64 -197 10 -50 10 -66 -5 -120 -20 -71 -12
-119 29 -168 45 -54 60 -95 60 -163 0 -104 -43 -167 -152 -225 -94 -51 -119
-135 -71 -240 36 -76 34 -190 -4 -267 -31 -62 -84 -116 -149 -149 -32 -16 -69
-24 -146 -29 -117 -7 -139 -18 -187 -93 -19 -29 -48 -56 -77 -72 -51 -28 -95
-75 -103 -108 -2 -12 -9 -48 -15 -80 -29 -149 -172 -224 -331 -172 -105 34
-169 0 -224 -119 -60 -132 -159 -200 -290 -201 -97 0 -153 24 -237 101 -79 72
-111 83 -195 64 -47 -10 -64 -9 -119 6 -74 20 -122 11 -171 -30 -54 -45 -95
-60 -163 -60 -104 0 -167 43 -225 152 -39 72 -78 95 -153 89 -31 -2 -84 -15
-117 -27 -146 -54 -311 15 -386 162 -16 32 -24 69 -29 144 -7 118 -17 139 -90
187 -31 20 -59 49 -75 79 -28 51 -75 95 -108 103 -12 2 -48 9 -80 15 -72 14
-132 59 -165 122 -30 59 -33 124 -8 205 34 111 2 172 -118 228 -132 60 -200
159 -201 290 0 97 24 153 101 237 73 79 83 110 64 197 -10 50 -10 66 5 120 20
71 12 119 -29 168 -45 54 -60 95 -60 163 0 103 43 167 149 224 65 35 88 67 93
133 3 41 -1 65 -19 105 -35 80 -33 194 4 270 55 113 165 178 300 178 92 0 131
19 177 87 22 33 52 61 82 78 51 28 95 75 103 108 2 12 9 48 15 80 15 73 59
133 124 165 60 30 123 33 203 8 111 -34 172 -2 228 119 59 131 159 199 290
200 97 0 153 -24 237 -101 79 -73 110 -83 197 -64 50 10 66 10 120 -5 71 -20
119 -12 168 29 54 45 95 60 163 60 103 0 167 -43 224 -149 35 -67 78 -95 143
-95 28 0 70 9 94 19 78 35 180 37 261 6 13 -5 24 8 53 65 l36 71 -33 13 c-104
44 -244 45 -347 3 l-59 -24 -19 41 c-28 63 -112 142 -190 179 -61 28 -78 32
-158 32 -100 0 -158 -17 -234 -67 -44 -29 -45 -29 -106 -17 -44 8 -79 9 -116
3 l-54 -10 -54 49 c-123 110 -288 152 -440 111z"/>
<path d="M4480 4787 c-49 -16 -133 -102 -148 -153 -28 -94 -8 -169 63 -239 51
-52 102 -75 165 -75 124 0 240 116 240 240 0 63 -23 114 -75 165 -70 71 -152
91 -245 62z m114 -158 c58 -27 55 -115 -5 -139 -63 -26 -125 36 -100 99 19 44
60 60 105 40z"/>
<path d="M3461 4343 c-22 -49 -25 -126 -7 -181 22 -65 94 -133 160 -152 48
-13 112 -10 159 9 l28 11 -32 58 c-44 78 -49 83 -71 76 -51 -16 -106 44 -93
99 6 22 0 30 -54 66 -33 23 -64 41 -69 41 -5 0 -14 -12 -21 -27z"/>
<path d="M2695 4333 c-41 -12 -59 -13 -106 -3 -87 19 -118 9 -197 -64 -84 -77
-140 -101 -237 -101 -60 0 -81 6 -152 39 -126 59 -181 45 -255 -67 -47 -69
-105 -105 -190 -117 -69 -10 -103 -31 -133 -80 -23 -38 -89 -106 -128 -133
-42 -28 -59 -71 -61 -156 -5 -172 -85 -279 -243 -326 -102 -30 -140 -84 -128
-179 19 -142 8 -198 -51 -269 -41 -49 -49 -97 -29 -168 15 -54 15 -70 5 -120
-19 -87 -9 -118 64 -197 77 -84 101 -140 101 -237 0 -60 -6 -81 -39 -152 -59
-126 -45 -181 67 -255 69 -47 105 -105 117 -190 10 -69 31 -103 80 -133 38
-23 106 -89 133 -128 28 -41 70 -58 155 -61 173 -6 280 -85 327 -243 30 -102
84 -140 179 -128 142 19 198 8 269 -51 49 -41 97 -50 171 -30 55 15 72 16 119
6 84 -19 116 -8 195 64 84 77 140 101 237 101 60 0 81 -6 152 -39 126 -59 181
-45 255 67 47 69 105 105 190 117 69 10 103 31 133 80 23 38 89 106 128 133
42 28 59 71 61 156 5 172 85 279 243 326 102 30 140 84 128 179 -19 142 -8
198 51 269 41 49 49 97 29 168 -15 54 -15 70 -5 120 19 87 9 118 -64 197 -77
84 -101 141 -101 237 1 60 6 83 39 154 58 127 45 179 -67 253 -69 47 -105 105
-117 190 -10 69 -31 103 -80 133 -38 23 -106 89 -133 128 -28 41 -70 58 -155
61 -174 6 -280 85 -327 244 -18 60 -53 104 -95 122 -29 12 -66 11 -165 -5 -50
-9 -111 7 -156 40 -50 37 -111 65 -139 64 -14 0 -47 -7 -75 -16z m-84 -170
c31 -3 80 0 107 7 47 11 54 10 81 -9 73 -53 142 -75 231 -75 47 -1 97 2 113 7
22 6 27 4 27 -11 0 -9 16 -51 35 -91 78 -162 252 -271 435 -271 28 0 50 -4 50
-9 0 -17 84 -102 125 -126 38 -23 43 -30 49 -74 12 -94 96 -220 179 -269 31
-19 31 -17 -8 -111 -69 -163 -30 -363 95 -491 46 -47 48 -52 39 -82 -12 -44
-11 -109 2 -163 10 -39 9 -47 -10 -74 -53 -73 -75 -142 -75 -231 -1 -47 2 -97
7 -112 6 -23 4 -28 -11 -28 -9 0 -51 -16 -91 -35 -163 -79 -271 -251 -271
-435 0 -28 -4 -50 -9 -50 -17 0 -102 -84 -126 -125 -23 -38 -30 -43 -71 -49
-96 -13 -206 -82 -259 -161 -33 -50 -29 -50 -124 -10 -163 69 -363 30 -491
-95 -47 -46 -52 -48 -82 -39 -44 12 -109 11 -163 -2 -39 -10 -47 -9 -74 10
-73 53 -142 75 -231 75 -47 1 -97 -2 -112 -7 -23 -6 -28 -4 -28 11 0 9 -16 51
-35 91 -78 162 -252 271 -435 271 -28 0 -50 4 -50 9 0 17 -84 102 -125 126
-38 23 -43 30 -49 74 -12 94 -96 220 -179 269 -31 19 -31 17 8 111 69 163 30
363 -95 491 -46 47 -48 52 -39 82 12 44 11 109 -2 163 -10 39 -9 47 10 74 53
73 75 142 75 231 1 47 -2 97 -7 113 -6 22 -4 27 11 27 9 0 51 16 91 35 162 78
271 252 271 435 0 28 4 50 9 50 18 0 102 84 127 126 18 31 32 44 48 44 83 0
220 79 276 159 39 56 34 55 129 16 163 -68 367 -29 489 95 28 28 53 46 62 43
8 -3 40 -7 71 -10z"/>
<path d="M2365 3906 c-305 -51 -558 -179 -765 -386 -343 -344 -477 -835 -355
-1305 13 -49 31 -107 39 -127 l16 -37 67 25 c37 14 70 27 74 30 4 2 -4 39 -18
81 -45 141 -76 379 -56 430 8 20 12 18 83 -43 108 -93 115 -96 229 -92 81 2
101 7 129 26 l32 23 0 -71 c0 -87 10 -106 94 -190 l66 -64 0 -59 c0 -82 26
-125 101 -168 l59 -34 0 -135 c0 -177 8 -190 164 -284 68 -41 125 -47 182 -20
50 24 71 61 102 178 l28 106 99 67 c125 85 145 113 145 204 0 56 6 79 35 140
47 99 47 139 -5 238 -50 95 -87 121 -176 121 -57 0 -58 0 -124 64 -98 95 -146
103 -261 45 -36 -18 -36 -18 -144 17 -99 32 -113 34 -154 24 -46 -12 -160 -73
-173 -94 -4 -6 -8 7 -8 30 0 26 -12 65 -34 110 -19 38 -32 72 -28 75 4 4 39
17 77 29 64 21 79 31 169 120 l98 97 37 108 38 108 91 32 c135 47 162 79 162
191 0 89 -26 135 -94 169 -27 14 -58 25 -67 25 -10 0 -20 4 -23 9 -6 9 87 25
204 36 144 14 380 -29 530 -96 67 -30 71 -34 49 -42 -97 -36 -126 -67 -160
-161 -23 -67 -15 -115 28 -166 34 -41 298 -170 345 -169 18 0 93 10 166 23
l134 22 29 -57 28 -57 -78 -46 c-63 -37 -87 -46 -126 -46 -40 0 -53 5 -86 34
-47 43 -76 49 -220 44 -141 -4 -162 -16 -216 -121 -50 -99 -49 -138 6 -244 49
-94 66 -107 189 -148 l82 -27 0 -46 c0 -70 33 -119 102 -156 l58 -31 0 -55 c0
-64 21 -104 73 -144 18 -14 36 -26 39 -26 3 0 25 30 49 66 43 66 43 67 22 83
-16 13 -21 32 -25 82 -5 81 -28 116 -103 155 -54 28 -55 30 -55 72 0 52 -23
105 -57 132 -13 10 -66 33 -117 50 -89 29 -93 32 -114 76 l-22 45 20 39 20 40
78 0 c73 0 80 -2 106 -29 44 -46 73 -53 188 -49 100 4 105 5 173 45 50 30 72
39 77 30 20 -36 41 -203 40 -322 0 -324 -120 -614 -347 -840 -176 -177 -399
-293 -645 -336 -96 -17 -304 -17 -400 0 -164 29 -328 95 -469 188 -105 70
-261 225 -321 321 -25 39 -48 71 -53 71 -4 1 -37 -17 -72 -40 l-65 -41 63 -91
c34 -51 105 -135 157 -187 194 -194 426 -318 710 -377 115 -24 379 -24 502 0
554 110 968 525 1085 1087 24 118 24 382 0 500 -116 555 -518 964 -1062 1082
-117 25 -360 32 -470 14z m-193 -328 c185 -52 190 -62 56 -107 -123 -41 -139
-58 -184 -195 -34 -105 -40 -115 -101 -177 -56 -57 -73 -68 -136 -88 -96 -31
-134 -55 -157 -102 -29 -56 -25 -104 15 -188 19 -40 35 -75 35 -77 0 -2 -16
-4 -35 -4 -31 0 -53 14 -150 97 -63 53 -115 101 -115 106 0 22 62 192 91 249
90 178 240 347 406 459 57 38 109 69 115 69 7 0 78 -19 160 -42z m1242 -186
c77 -79 80 -74 -45 -92 l-77 -11 -106 53 c-58 29 -106 57 -106 63 0 28 32 46
120 68 112 28 103 32 214 -81z m-1209 -881 c111 -36 137 -35 215 4 l47 24 54
-55 c69 -71 95 -84 167 -84 l59 0 18 -40 18 -40 -32 -68 c-25 -56 -31 -82 -31
-138 l0 -69 -105 -69 c-57 -37 -111 -79 -120 -92 -8 -13 -27 -68 -41 -122 -15
-53 -27 -98 -29 -100 -2 -2 -26 12 -53 30 l-51 33 -3 145 c-4 170 -11 188
-103 236 l-55 29 0 58 c0 73 -13 96 -94 177 -57 56 -66 69 -66 100 0 32 4 38
43 57 23 12 47 20 52 19 6 -2 55 -18 110 -35z"/>
<path d="M1440 4240 l0 -80 80 0 80 0 0 80 0 80 -80 0 -80 0 0 -80z"/>
<path d="M4337 2959 l-69 -41 43 -44 c96 -98 233 -99 332 -4 l50 47 -72 42
c-70 41 -73 42 -92 25 -24 -22 -73 -22 -97 -1 -10 10 -20 17 -23 17 -2 0 -35
-19 -72 -41z"/>
<path d="M557 2335 c-58 -56 -72 -90 -72 -175 0 -83 14 -117 66 -169 39 -40
76 -59 128 -67 l41 -7 0 81 c0 79 0 80 -29 92 -50 20 -63 86 -25 125 13 13 10
23 -26 85 -22 38 -42 70 -44 70 -2 0 -19 -16 -39 -35z"/>
<path d="M4400 2080 l0 -80 80 0 80 0 0 80 0 80 -80 0 -80 0 0 -80z"/>
<path d="M480 787 c-49 -16 -133 -102 -148 -153 -28 -94 -8 -169 63 -239 70
-71 145 -91 239 -63 55 16 138 99 154 154 26 89 9 163 -55 234 -65 72 -158 97
-253 67z m114 -158 c88 -40 26 -176 -63 -139 -58 23 -64 110 -10 137 30 16 42
16 73 2z"/>
<path d="M2000 640 l0 -80 80 0 80 0 0 80 0 80 -80 0 -80 0 0 -80z"/>
<path d="M2817 638 l-68 -41 42 -43 c93 -95 233 -99 327 -10 l44 42 -65 43
c-65 42 -66 42 -97 26 -26 -13 -37 -14 -66 -5 -19 6 -34 16 -34 21 0 15 -12
10 -83 -33z"/>
</g>
</svg>
